solid rod_mesh_mm_one_end_at_origin
  facet normal 0.000000000 0.000000000 -1.000000000
    outer loop
      vertex -25.000000000 0.000000000 -12.500000000
      vertex 25.000000000 500.000000000 -12.500000000
      vertex 25.000000000 0.000000000 -12.500000000
    endloop
  endfacet
  facet normal 0.000000000 0.000000000 -1.000000000
    outer loop
      vertex -25.000000000 0.000000000 -12.500000000
      vertex -25.000000000 500.000000000 -12.500000000
      vertex 25.000000000 500.000000000 -12.500000000
    endloop
  endfacet
  facet normal 0.000000000 0.000000000 1.000000000
    outer loop
      vertex -25.000000000 0.000000000 12.500000000
      vertex 25.000000000 0.000000000 12.500000000
      vertex 25.000000000 500.000000000 12.500000000
    endloop
  endfacet
  facet normal 0.000000000 0.000000000 1.000000000
    outer loop
      vertex -25.000000000 0.000000000 12.500000000
      vertex 25.000000000 500.000000000 12.500000000
      vertex -25.000000000 500.000000000 12.500000000
    endloop
  endfacet
  facet normal 0.000000000 -1.000000000 0.000000000
    outer loop
      vertex -25.000000000 0.000000000 -12.500000000
      vertex 25.000000000 0.000000000 -12.500000000
      vertex 25.000000000 0.000000000 12.500000000
    endloop
  endfacet
  facet normal 0.000000000 -1.000000000 0.000000000
    outer loop
      vertex -25.000000000 0.000000000 -12.500000000
      vertex 25.000000000 0.000000000 12.500000000
      vertex -25.000000000 0.000000000 12.500000000
    endloop
  endfacet
  facet normal 0.000000000 1.000000000 0.000000000
    outer loop
      vertex -25.000000000 500.000000000 -12.500000000
      vertex -25.000000000 500.000000000 12.500000000
      vertex 25.000000000 500.000000000 12.500000000
    endloop
  endfacet
  facet normal 0.000000000 1.000000000 0.000000000
    outer loop
      vertex -25.000000000 500.000000000 -12.500000000
      vertex 25.000000000 500.000000000 12.500000000
      vertex 25.000000000 500.000000000 -12.500000000
    endloop
  endfacet
  facet normal -1.000000000 0.000000000 0.000000000
    outer loop
      vertex -25.000000000 0.000000000 -12.500000000
      vertex -25.000000000 0.000000000 12.500000000
      vertex -25.000000000 500.000000000 12.500000000
    endloop
  endfacet
  facet normal -1.000000000 0.000000000 0.000000000
    outer loop
      vertex -25.000000000 0.000000000 -12.500000000
      vertex -25.000000000 500.000000000 12.500000000
      vertex -25.000000000 500.000000000 -12.500000000
    endloop
  endfacet
  facet normal 1.000000000 0.000000000 0.000000000
    outer loop
      vertex 25.000000000 0.000000000 -12.500000000
      vertex 25.000000000 500.000000000 -12.500000000
      vertex 25.000000000 500.000000000 12.500000000
    endloop
  endfacet
  facet normal 1.000000000 0.000000000 0.000000000
    outer loop
      vertex 25.000000000 0.000000000 -12.500000000
      vertex 25.000000000 500.000000000 12.500000000
      vertex 25.000000000 0.000000000 12.500000000
    endloop
  endfacet
endsolid rod_mesh_mm_one_end_at_origin
